<svg version="1.1" id="Layer_1" xmlns="http://www.w3.org/2000/svg" xmlns:xlink="http://www.w3.org/1999/xlink" x="0px" y="0px" viewBox="0 0 176.7 38.7" style="enable-background:new 0 0 176.7 38.7;" xml:space="preserve">
 <style type="text/css">
  .st0{fill:#A73439;}
	.st1{fill:#E1251B;}
 </style>
 <g>
  <path d="M41.3,27.6H32L41.2,12c0,0,0,0,0,0V9.3c0,0,0-0.1-0.1-0.1H29c0,0-0.1,0-0.1,0.1l-0.7,2.8c0,0,0,0,0,0.1c0,0,0,0,0.1,0h8.8
		l-9.3,15.7c0,0,0,0,0,0v2.6c0,0,0,0.1,0.1,0.1h12.6c0,0,0.1,0,0.1-0.1l0.8-2.8C41.3,27.6,41.3,27.6,41.3,27.6
		C41.3,27.6,41.3,27.6,41.3,27.6">
  </path>
  <path d="M44.9,9.1c-1.3,0-2.2,1-2.2,2.3c0,1.3,1,2.3,2.2,2.3c1.3,0,2.3-1,2.3-2.3C47.1,10.2,46.1,9.1,44.9,9.1">
  </path>
  <path d="M46.5,14.5L46.5,14.5l-3.3,0.6c0,0-0.1,0-0.1,0.1v15.2c0,0,0,0.1,0.1,0.1h3.3c0,0,0.1,0,0.1-0.1L46.5,14.5
		C46.5,14.6,46.5,14.6,46.5,14.5C46.5,14.5,46.5,14.5,46.5,14.5">
  </path>
  <path d="M90.4,28.1C90.4,28.1,90.4,28.1,90.4,28.1C90.3,28.1,90.3,28.1,90.4,28.1c-0.6,0.2-1,0.3-1.4,0.3c-1.4,0-1.8-0.5-1.8-2.4
		v-9h2.7c0,0,0.1,0,0.1-0.1l0.9-2.3c0,0,0-0.1,0-0.1c0,0,0,0-0.1,0h-3.5v-4.2c0,0,0,0,0-0.1c0,0,0,0,0,0h0l-3.2,0.6
		c0,0-0.1,0-0.1,0.1v3.6h-1.6c0,0-0.1,0-0.1,0.1v2.3c0,0,0,0.1,0.1,0.1h1.6v9.9c0,1.8,0.7,4,4,4c1,0,2-0.2,3-0.7c0,0,0-0.1,0-0.1
		L90.4,28.1C90.4,28.1,90.4,28.1,90.4,28.1">
  </path>
  <path d="M64.5,26.8c-0.7,1-1.6,1.6-2.6,1.6c-1.3,0-2-0.9-2-2.3c0-1.7,0.7-2.8,4.2-2.8c0.2,0,0.4,0,0.5,0V26.8z M67.7,17.1
		c-0.7-1.7-2.3-2.6-4.7-2.6c-1.5,0-2.9,0.3-4.4,1c0,0,0,0,0,0.1l-0.6,3.2c0,0,0,0.1,0,0.1c0,0,0,0,0,0c0,0,0,0,0,0
		c0,0,2.3-1.7,4.4-1.7c1.7,0,2,0.9,2,2.6v1.1h-0.9c-4.9,0-7.5,1.9-7.5,5.5c0,3,1.8,4.7,5.1,4.7c1.3,0,2.4-0.3,3.3-1v1
		c0,0,0,0.1,0.1,0.1h3.3c0,0,0.1,0,0.1-0.1V21C68,18.6,68,17.8,67.7,17.1">
  </path>
  <path d="M77.6,26.8c-0.7,1-1.6,1.6-2.6,1.6c-1.3,0-2-0.9-2-2.3c0-1.7,0.7-2.8,4.2-2.8c0.2,0,0.4,0,0.5,0V26.8z M80.8,17.1
		c-0.7-1.7-2.3-2.6-4.7-2.6c-1.5,0-2.9,0.3-4.4,1c0,0,0,0,0,0.1l-0.6,3.6c0,0,0,0.1,0,0.1c0,0,0,0,0,0c0,0,0,0,0,0
		c0,0,2.3-1.8,4.4-1.8c1.7,0,2,0.9,2,2.6v0.7h-0.9c-4.9,0-7.5,1.9-7.5,5.5c0,3,1.9,4.7,5.1,4.7c1.3,0,2.3-0.3,3.3-1v1
		c0,0,0,0.1,0.1,0.1H81c0,0,0.1,0,0.1-0.1V21C81.1,18.6,81.1,17.8,80.8,17.1">
  </path>
  <path d="M56.5,18.5L56.5,18.5C56.6,18.5,56.6,18.5,56.5,18.5c0.1,0,0.1,0,0.1-0.1l0.6-3.2c0,0,0-0.1,0-0.1C56.8,15,56.5,15,56,15
		c-1.4,0-2.6,0.7-3.8,2.3v-2.7c0,0,0,0,0-0.1c0,0,0,0,0,0l0,0l-3,0.5c0,0-0.1,0-0.1,0.1v15.3c0,0,0,0.1,0.1,0.1h3.3
		c0,0,0.1,0,0.1-0.1l0-10.1c0.3-1.3,1.5-2.2,2.8-2.2c0.3,0,0.8,0.2,1.2,0.3L56.5,18.5z">
  </path>
  <path d="M106.2,27.4c-0.8,0.8-2.1,0.9-3,0.9h-4.3v-7.7h3.6c1.2,0,2.5,0,3.5,0.8c0.5,0.4,1.3,1.3,1.3,3.3
		C107.2,26.2,106.5,27,106.2,27.4 M98.8,11.4h2.8l0.6,0c0.9,0,1.9,0.1,2.8,0.8c0.7,0.6,1.2,1.6,1.2,2.7c0,1-0.4,2-1,2.6
		c-0.9,0.8-2.1,0.8-2.7,0.8h-3.6V11.4z M108.1,20.2c-0.6-0.5-1.5-0.9-2.4-1.1c1-0.4,1.6-0.8,2-1.2c1.2-1.1,1.4-2.5,1.4-3.4
		c0-1.7-0.8-3.2-2.2-4.2c-1.7-1.2-3.8-1.2-5.7-1.2h-4.8c0,0-0.1,0-0.1,0.1v21.1c0,0,0,0.1,0.1,0.1h5.3c2.9,0,5-0.1,6.6-1.7
		c1-1,1.6-2.5,1.6-4.2C109.9,22.7,109.3,21.2,108.1,20.2">
  </path>
  <path d="M130.9,14.6c-0.9,0-1.7,0.2-2.6,0.7c-0.8,0.4-1.5,0.9-2.1,1.6v-2.2c0,0,0,0,0-0.1c0,0,0,0,0,0h0l-2.3,0.4
		c0,0-0.1,0-0.1,0.1v15.3c0,0,0,0.1,0.1,0.1h2.3c0,0,0.1,0,0.1-0.1V19c0.5-0.6,1.1-1,1.9-1.4c0.8-0.4,1.6-0.7,2.2-0.7
		c0.6,0,1.2,0.2,1.6,0.6c0.5,0.6,0.5,1.5,0.5,2.4v10.5c0,0,0,0.1,0.1,0.1h2.3c0,0,0.1,0,0.1-0.1V18.7c0-0.4,0-1-0.4-1.8
		C134.2,15.9,132.9,14.6,130.9,14.6">
  </path>
  <path d="M142.3,21.7l6.2-7c0,0,0-0.1,0-0.1c0,0,0,0-0.1,0h-2.9c0,0,0,0-0.1,0l-6,7V9.3c0,0,0,0,0-0.1c0,0,0,0,0,0h0L137,9.6
		c0,0-0.1,0-0.1,0.1v20.7c0,0,0,0.1,0.1,0.1h2.3c0,0,0.1,0,0.1-0.1v-8.6l6.8,8.6c0,0,0,0,0.1,0h3.1c0,0,0.1,0,0.1,0c0,0,0-0.1,0-0.1
		L142.3,21.7z">
  </path>
  <path d="M119.5,26.6c-0.9,1.7-2.4,2.3-3.6,2.3c-0.8,0-1.4-0.2-1.8-0.7c-0.3-0.3-0.6-0.9-0.6-2c0-1.1,0.3-1.9,0.9-2.5
		c1-1,3-1.1,4.1-1.1c0.3,0,0.6,0,0.8,0l0.2,0V26.6z M117.5,14.6c-1.1,0-2.2,0.2-3.3,0.6c-0.4,0.1-0.9,0.3-1.3,0.6c0,0,0,0,0,0.1
		l-0.5,2.7c0,0,0,0.1,0,0.1c0,0,0,0,0,0c0,0,0,0,0,0c0.6-0.5,1.3-0.9,2.1-1.2c0.4-0.1,1.5-0.6,2.6-0.6c0.6,0,1.3,0.1,1.9,0.7
		c0.5,0.6,0.5,1.2,0.5,1.8v1.6c-0.3,0-0.6,0-0.9,0c-1.7,0-4.1,0.2-5.9,1.4c-1.4,1-2.2,2.4-2.2,4.2c0,2.8,1.8,4.4,4.9,4.4
		c1,0,2.4-0.2,4-1.7v1.6c0,0,0,0.1,0.1,0.1h2.3c0,0,0.1,0,0.1-0.1v-11c0-0.1,0-0.3,0-0.5c0-0.7,0-1.6-0.2-2.2
		C121.5,16.1,120.5,14.6,117.5,14.6">
  </path>
  <path d="M157.8,26.6c-0.9,1.7-2.4,2.3-3.6,2.3c-0.8,0-1.4-0.2-1.8-0.7c-0.3-0.3-0.6-0.9-0.6-2c0-1.1,0.3-1.9,0.9-2.5
		c1-1,3-1.1,4.1-1.1c0.3,0,0.6,0,0.8,0l0.2,0V26.6z M155.8,14.6c-1.1,0-2.2,0.2-3.3,0.6c-0.4,0.1-0.9,0.3-1.3,0.6c0,0,0,0,0,0.1
		l-0.5,2.7c0,0,0,0.1,0,0.1c0,0,0,0,0,0c0,0,0,0,0.1,0c0.6-0.5,1.3-0.9,2.1-1.2c0.4-0.1,1.5-0.6,2.6-0.6c0.6,0,1.3,0.1,1.9,0.7
		c0.5,0.6,0.5,1.2,0.5,1.8v1.6c-0.3,0-0.6,0-0.9,0c-1.7,0-4.1,0.2-5.9,1.4c-1.4,1-2.2,2.4-2.2,4.2c0,2.8,1.8,4.4,4.9,4.4
		c1,0,2.4-0.2,4-1.7v1.6c0,0,0,0.1,0.1,0.1h2.3c0,0,0.1,0,0.1-0.1v-11c0-0.1,0-0.3,0-0.5c0-0.7,0-1.6-0.2-2.2
		C159.8,16.1,158.8,14.6,155.8,14.6">
  </path>
  <path d="M169.2,21.6l-1.9-0.5c-1.5-0.4-2.2-1-2.2-2.2c0-1.4,1.1-2.4,2.7-2.4c1.1,0,2.1,0.3,3.6,1c0,0,0,0,0,0h0c0,0,0,0,0.1,0
		l0.8-1.7c0,0,0-0.1,0-0.1c-1.3-0.8-2.9-1.2-4.6-1.2c-3.2,0-5.3,1.9-5.3,4.7c0,2.2,1.2,3.7,3.6,4.2l1.8,0.4c1.8,0.3,2.6,1.1,2.6,2.5
		c0,1.5-1.1,2.6-2.9,2.6c-1.4,0-3-0.5-4.7-1.5c0,0,0,0,0,0s0,0,0,0c0,0,0,0,0,0l-0.8,1.7c0,0,0,0.1,0,0.1c1.7,1,3.7,1.5,5.4,1.5
		c3.5,0,5.8-2,5.8-5.1C173.1,23.6,171.7,22.1,169.2,21.6">
  </path>
  <path d="M176.7,14.6C176.7,14.6,176.7,14.6,176.7,14.6L176.7,14.6l-2.4,0.4c0,0-0.1,0-0.1,0.1v15.3c0,0,0,0.1,0.1,0.1h2.3
		c0,0,0.1,0,0.1-0.1L176.7,14.6C176.7,14.6,176.7,14.6,176.7,14.6">
  </path>
  <path class="st0" d="M7.7,19.9c0.4-0.4,0.2-0.8-0.1-1.2c-0.1-0.2-0.3-0.3-0.3-0.3l-1.7,1.5l1.1,0.9L7.7,19.9z">
  </path>
  <path class="st1" d="M7.6,27.6c0,0,0.1,0.1,0.2,0.1c0.1,0,0.1,0,0.2,0c0.1,0,0.1,0,0.2,0c0.1,0,0.1-0.1,0.2-0.1
		c0,0,0.1-0.1,0.1-0.2c0-0.1,0-0.1,0-0.2v-2v-2c0-0.3-0.1-0.6-0.2-0.8C8.2,22.2,8,22,7.8,21.8l-7-6c0,0-0.1-0.1-0.2-0.1
		c-0.1,0-0.1,0-0.2,0c-0.1,0-0.1,0-0.2,0c-0.1,0-0.1,0.1-0.2,0.1c0,0-0.1,0.1-0.1,0.2c0,0.1,0,0.1,0,0.2v4c0,0.3,0.1,0.6,0.2,0.8
		c0.1,0.2,0.3,0.5,0.4,0.7L7.6,27.6z">
  </path>
  <path class="st0" d="M2.1,22.9L2.1,22.9l-1.4,1.2c-0.2,0.1-0.2,0.3-0.2,0.4v0.1l0,0c0,0,0,0,0,0c0,0,0,0,0,0c0,0,0,0.1,0,0.1
		c0,0,0,0,0,0c0,0.1,0,0.1,0.1,0.1l0,0c0,0,0,0.1,0.1,0.1c0,0,0,0,0,0c0,0,0.1,0.1,0.1,0.1c0,0,0.1,0.1,0.1,0.1c0,0,0,0,0,0
		c0,0,0.1,0.1,0.1,0.1c0.1,0.1,0.1,0.1,0.1,0.1l2.1-1.8v0L2.1,22.9z">
  </path>
  <path class="st1" d="M8.3,32.1c-0.1-0.2-0.3-0.5-0.4-0.7l-6.8-5.8c0,0-0.1-0.1-0.1-0.1l0,0c0,0,0-0.1-0.1-0.1c0,0,0,0,0,0
		c0,0-0.1-0.1-0.1-0.1c0,0-0.1-0.1-0.1-0.1c0,0,0,0,0,0c0,0,0-0.1-0.1-0.1l0,0c0,0,0-0.1-0.1-0.1c0,0,0,0,0,0c0,0,0-0.1,0-0.1l0,0
		c0,0,0,0,0,0c0,0,0,0,0,0l0,0v-0.1c0-0.2,0.1-0.3,0.2-0.4l-0.1,0.1c0,0,0,0,0,0c-0.1,0.1-0.2,0.2-0.3,0.5l0,0
		C0.2,25,0.1,25.4,0,25.9C0,26,0,26,0,26.1c0,0.1,0,0.1,0,0.2c0,0,0,4.7,0,4.7c0,0.3,0.1,0.6,0.2,0.8c0.1,0.2,0.3,0.5,0.4,0.7l7,6
		c0,0,0.1,0.1,0.2,0.1c0.1,0,0.1,0,0.2,0c0.1,0,0.1,0,0.2,0c0.1,0,0.1-0.1,0.2-0.1c0,0,0.1-0.1,0.1-0.2c0-0.1,0-0.1,0-0.2v-5.2
		C8.4,32.7,8.4,32.4,8.3,32.1">
  </path>
  <path class="st1" d="M8.3,12.2C8.2,12,8,11.7,7.8,11.5l-7-6c0,0-0.1-0.1-0.2-0.1c-0.1,0-0.1,0-0.2,0c-0.1,0-0.1,0-0.2,0
		c-0.1,0-0.1,0.1-0.2,0.1c0,0-0.1,0.1-0.1,0.2c0,0.1,0,0.1,0,0.2v2.6v2.6c0,0.3,0.1,0.6,0.2,0.8c0.1,0.2,0.3,0.5,0.4,0.7l6.8,5.8
		c0,0,0.1,0.1,0.1,0.1c0.1,0.1,0.1,0.1,0.2,0.2c0.1,0.2,0.2,0.4,0.3,0.6c0,0.2,0,0.4-0.2,0.6c0,0,0.2-0.2,0.4-0.6l0,0
		c0.1-0.3,0.2-0.7,0.3-1.2c0-0.1,0-0.1,0-0.2c0-0.1,0-0.1,0-0.2v-2.4c0-1.2,0-2.3,0-2.3C8.4,12.7,8.4,12.5,8.3,12.2">
  </path>
  <path class="st0" d="M10.6,27.7v3.6l1.4-1.2v-3.6l-0.1,0.1l-1.2,1C10.6,27.7,10.6,27.7,10.6,27.7">
  </path>
  <path class="st0" d="M11.9,17.5L11.9,17.5l-1.2,1.1c0,0-0.1,0.1-0.1,0.1l0,0v3l1.4-1.2V17.5z">
  </path>
  <path class="st1" d="M18,18.8c0.2-0.2,0.3-0.5,0.3-0.9V5.9c0-0.1,0-0.1,0-0.2c0-0.1-0.1-0.1-0.1-0.2c0,0-0.1-0.1-0.2-0.1
		c-0.1,0-0.1,0-0.2,0s-0.1,0-0.2,0c-0.1,0-0.1,0.1-0.2,0.1l-7,6c-0.2,0.2-0.3,0.4-0.4,0.7c-0.1,0.2-0.2,0.5-0.2,0.8v5.2
		c0,0.1,0,0.1,0,0.2c0,0.1,0.1,0.1,0.1,0.2c0,0,0.1,0.1,0.2,0.1c0.1,0,0.1,0,0.2,0c0.1,0,0.1,0,0.2,0c0,0,0,0,0,0c0,0,0.1,0,0.1-0.1
		l1.2-1L16,14c0,0,0.1-0.1,0.2-0.1c0.1,0,0.1,0,0.2,0s0.1,0,0.2,0c0.1,0,0.1,0.1,0.2,0.1c0,0,0.1,0.1,0.1,0.2c0,0.1,0,0.1,0,0.2v0.9
		c0,0.3-0.1,0.6-0.2,0.8c-0.1,0.3-0.3,0.5-0.4,0.7l-4.3,3.7v0l-1.4,1.2l-0.1,0.1c-0.2,0.2-0.3,0.4-0.4,0.7c-0.1,0.2-0.2,0.5-0.2,0.8
		v4c0,0.1,0,0.1,0,0.2c0,0.1,0.1,0.1,0.1,0.2c0,0,0.1,0.1,0.2,0.1c0.1,0,0.1,0,0.2,0c0.1,0,0.1,0,0.2,0c0,0,0,0,0,0
		c0,0,0.1-0.1,0.1-0.1l1.2-1L16,23c0,0,0.1-0.1,0.2-0.1c0.1,0,0.1,0,0.2,0s0.1,0,0.2,0c0.1,0,0.1,0.1,0.2,0.1c0,0,0.1,0.1,0.1,0.2
		c0,0.1,0,0.1,0,0.2V25c0,0.3-0.1,0.6-0.2,0.8c-0.1,0.2-0.3,0.5-0.4,0.7l-5.8,5c-0.2,0.2-0.3,0.4-0.4,0.7c-0.1,0.2-0.2,0.5-0.2,0.8
		v5.2c0,0.1,0,0.1,0,0.2c0,0.1,0.1,0.1,0.1,0.2c0,0,0.1,0.1,0.2,0.1c0.1,0,0.1,0,0.2,0c0.1,0,0.1,0,0.2,0c0.1,0,0.1-0.1,0.2-0.1l7-6
		c0.2-0.2,0.3-0.4,0.4-0.7c0.1-0.2,0.2-0.5,0.2-0.8V19.7c0-0.1,0-0.1,0-0.2c0,0-0.1-0.1-0.1-0.1c0,0-0.1-0.1-0.2-0.1
		c-0.1,0-0.1,0-0.2,0c-0.1,0-0.1,0-0.2,0c-0.1,0-0.1,0.1-0.1,0.1C17.7,19.1,17.8,19,18,18.8">
  </path>
  <path class="st1" d="M8.4,2.9C8.4,2.9,8.4,2.9,8.4,2.9L5.1,0.1c0,0,0,0-0.1,0c0,0,0,0-0.1,0c0,0,0,0,0,0l0,0C4.8,0,4.8,0.1,4.7,0.1
		c0,0,0,0.1,0,0.1v2.1c0,0,0,0.1,0,0.1c0,0,0,0.1,0.1,0.1l1,0.9v2L5.4,5c0,0,0,0-0.1,0c0,0-0.1,0-0.1,0c0,0,0,0-0.1,0c0,0,0,0,0,0
		C5.1,5,5.1,5,5.1,5.1c0,0,0,0.1,0,0.1v2c0,0,0,0.1,0,0.1c0,0,0,0.1,0.1,0.1l2.4,2c0,0,0,0,0.1,0c0,0,0.1,0,0.1,0c0,0,0,0,0.1,0
		c0,0,0,0,0,0c0,0,0.1-0.1,0.1-0.1c0,0,0-0.1,0-0.1V7.2c0,0,0-0.1,0-0.1c0,0,0-0.1-0.1-0.1L7.3,6.7V4.7L8,5.3c0,0,0,0,0.1,0
		c0,0,0.1,0,0.1,0c0,0,0,0,0.1,0c0,0,0,0,0,0c0,0,0.1-0.1,0.1-0.1c0,0,0-0.1,0-0.1V3C8.4,3,8.4,3,8.4,2.9">
  </path>
  <path class="st1" d="M13.5,2.6C13.5,2.5,13.5,2.5,13.5,2.6c0.1-0.1,0.1-0.1,0.1-0.2V0.3c0,0,0-0.1,0-0.1c0,0-0.1-0.1-0.1-0.1
		c0,0,0,0,0,0c0,0,0,0-0.1,0c0,0-0.1,0-0.1,0c0,0-0.1,0-0.1,0L9.9,2.9c0,0,0,0.1-0.1,0.1c0,0,0,0.1,0,0.1v6.6c0,0,0,0.1,0,0.1
		c0,0,0.1,0.1,0.1,0.1c0,0,0,0,0.1,0c0,0,0,0,0,0c0,0,0.1,0,0.1,0c0,0,0.1,0,0.1,0l3.2-2.8c0,0,0,0,0.1-0.1c0,0,0-0.1,0-0.1v-2
		c0,0,0-0.1,0-0.1c0,0-0.1-0.1-0.1-0.1c0,0,0,0,0,0c0,0,0,0-0.1,0c0,0-0.1,0-0.1,0c0,0-0.1,0-0.1,0l-1.8,1.5V4.4L13.5,2.6z">
  </path>
 </g>
</svg>